<svg version="1" xmlns="http://www.w3.org/2000/svg" width="682.667" height="682.667" viewBox="0 0 512.000000 512.000000"><path d="M182.9 72.7c0 .5-.2 1.7-.4 2.8-.2 1.1-.9 4.7-1.4 8-.6 3.3-1.3 7-1.5 8.1-.2 1.2-.7 3.7-1 5.5-.3 1.9-.8 4.5-1 5.9-.3 1.4-1.4 8.1-2.6 15-1.1 6.9-2.7 15.9-3.5 20-.8 4.1-1.7 9.5-2 12-.3 2.5-1 6.1-1.5 8-.5 1.9-1.1 5.3-1.4 7.5-.3 2.2-1.2 7.6-2 12s-1.7 9.8-2.1 12c-.5 3.7-2 12.2-2.9 17.1-.2 1.2-.7 3.9-1 6-.7 4.5-2.4 13.8-3.1 17.4-.3 1.4-.8 4.1-1.1 6-.2 1.9-.9 5.7-1.4 8.5-.5 2.7-1.2 6.6-1.5 8.5-.3 1.9-1.5 8.4-2.5 14.5-1.1 6-2.1 12.1-2.2 13.5l-.3 2.5H183c25.9.1 36.4.4 36.3 1.2-.1.6-.5 2.6-.8 4.5-.3 1.8-1.5 6.9-2.6 11.3-1.2 4.4-2.3 8.9-2.5 10-.5 2.6-1.2 5.5-1.8 8-.2 1.1-2.5 10.8-5.1 21.5-2.5 10.7-4.8 20.6-5.1 22-.3 1.4-1.4 6.1-2.5 10.5-1 4.4-2.1 8.9-2.3 10-.2 1.1-1.6 6.7-3 12.5-1.3 5.8-3.9 16.6-5.7 24-1.7 7.4-3.5 15-3.9 16.7-.4 1.8-.7 3.3-.5 3.3.2 0 3.6-4.2 7.6-9.2 4.1-5.1 7.6-9.5 7.9-9.8.3-.3 1.9-2.3 3.5-4.5s3.6-4.7 4.5-5.6c.8-.9 2.4-2.9 3.5-4.4 1.1-1.6 8.5-11 16.5-21 8-10.1 19.8-24.9 26.2-33.1 6.5-8.2 12.6-16 13.7-17.4 5.1-6.5 32.3-40.7 33.4-42 .7-.8 2.8-3.5 4.7-6 4.7-6.1 6.1-7.8 9-11.4 1.4-1.7 8.4-10.5 15.5-19.6 7.1-9.1 13.2-16.7 13.5-17 1.2-1.1 14-17.9 14-18.4 0-.4-11.4-.6-25.2-.6-13.9.1-32.4.1-41 0h-15.7l36.5-72.9c20-40 36.4-73.1 36.4-73.5 0-.9-165-.8-165.1.1z"/></svg>