<svg xmlns="http://www.w3.org/2000/svg" width="14" height="18" viewBox="0 0 14 18">
    <g fill="#21AFD3" fill-rule="evenodd">
        <path d="M13.034 17.25H.466c-.258 0-.466.168-.466.375S.208 18 .466 18h12.568c.258 0 .466-.168.466-.375s-.208-.375-.466-.375zM6.75 0a.453.453 0 0 0-.453.454V12.07L2.29 8.623a.45.45 0 0 0-.678.006.458.458 0 0 0 .09.675l4.754 4.087c.17.145.42.145.59 0L11.8 9.304a.456.456 0 0 0 .09-.675.453.453 0 0 0-.68-.006L7.204 12.07V.454A.454.454 0 0 0 6.75 0z"/>
    </g>
</svg>
