<svg xmlns="http://www.w3.org/2000/svg" width="116" height="116" viewBox="0 0 116 116">
    <g fill="none" fill-rule="evenodd">
        <circle cx="57" cy="57" r="57" stroke="#A6B4CF" transform="translate(1 1)"/>
        <g fill="#A0AFCC">
            <path d="M75.69 80H40.31c-.724 0-1.31.67-1.31 1.5s.586 1.5 1.31 1.5h35.38c.724 0 1.31-.67 1.31-1.5s-.586-1.5-1.31-1.5zM58 32c-.715 0-1.294.587-1.294 1.312v33.556l-11.45-9.957a1.28 1.28 0 0 0-1.94.018 1.334 1.334 0 0 0-.305 1.035c.05.372.253.705.561.915l13.586 11.806c.486.42 1.198.42 1.684 0l13.586-11.806c.308-.21.51-.543.561-.915a1.334 1.334 0 0 0-.306-1.035 1.28 1.28 0 0 0-1.938-.018l-11.45 9.957V33.312a1.32 1.32 0 0 0-.38-.928A1.284 1.284 0 0 0 58 32z"/>
        </g>
    </g>
</svg>
