<svg xmlns="http://www.w3.org/2000/svg" width="76" height="129" viewBox="0 0 76 129">
    <g fill="#A0AFCC" fill-rule="evenodd">
        <path d="M17.098 129h41.794c4.735 0 9.024-1.942 12.107-5.059a17.275 17.275 0 0 0 4.99-12.163l-.004-17.419.015-.16-.015-.159V27.556c.005-4.636-1.805-8.794-4.679-11.936a1.89 1.89 0 0 0-2.684-.114 1.924 1.924 0 0 0-.113 2.705c2.296 2.52 3.677 5.719 3.677 9.345v64.727l-68.387.005V27.562c.005-3.632 1.376-6.796 3.794-9.31a1.929 1.929 0 0 0-.036-2.71 1.894 1.894 0 0 0-2.69.036C1.816 18.731-.01 22.92 0 27.556v84.216c.005 9.49 7.68 17.223 17.097 17.227V129zm-13.3-32.884h68.387v15.656c0 3.688-1.477 7.027-3.88 9.464a13.192 13.192 0 0 1-9.413 3.936H17.097c-3.656 0-6.969-1.505-9.387-3.936a13.39 13.39 0 0 1-3.907-9.46L3.8 96.117z"/>
        <path d="M36.946 113h3.108c1.072 0 1.946-.892 1.946-2 0-1.102-.868-2-1.946-2h-3.108c-1.072 0-1.946.892-1.946 2 .005 1.102.874 2 1.946 2zM21.273 21.946L36.586 6.569v41.506c0 1.06.855 1.925 1.917 1.925 1.057 0 1.918-.86 1.918-1.925l-.006-41.506 15.313 15.377c.748.75 1.959.75 2.711 0a1.933 1.933 0 0 0 0-2.723L39.853.564a1.916 1.916 0 0 0-.629-.42l-.03-.01A1.887 1.887 0 0 0 38.502 0c-.248 0-.48.052-.696.135l-.036.01a1.916 1.916 0 0 0-.63.42l-18.58 18.664a1.933 1.933 0 0 0 0 2.722 1.918 1.918 0 0 0 2.71-.005h.002z"/>
    </g>
</svg>
