<?xml version="1.0" encoding="utf-8"?>
<!-- Generator: Adobe Illustrator 21.0.2, SVG Export Plug-In . SVG Version: 6.00 Build 0)  -->
<svg version="1.1" id="Layer_1" xmlns:sketch="http://www.bohemiancoding.com/sketch/ns"
	 xmlns="http://www.w3.org/2000/svg" xmlns:xlink="http://www.w3.org/1999/xlink" x="0px" y="0px" viewBox="0 0 24 24"
	 style="enable-background:new 0 0 24 24;" xml:space="preserve">
<style type="text/css">
	.st0{fill:#A0AFCC;}
</style>
<title></title>
<desc></desc>
<g id="miu">
	<g id="Artboard-1" transform="translate(-863.000000, -119.000000)">
		<g id="slice" transform="translate(215.000000, 119.000000)">
		</g>
		<path id="circle-no-forbidden-outline-stroke" class="st0" d="M868.4,122.7c1.9-1.7,4.3-2.7,7.1-2.7c5.8,0,10.5,4.7,10.5,10.5
			c0,2.7-1,5.2-2.7,7.1L868.4,122.7z M867.7,123.4c-1.7,1.9-2.7,4.3-2.7,7.1c0,5.8,4.7,10.5,10.5,10.5c2.7,0,5.2-1,7.1-2.7
			L867.7,123.4z M864,130.5c0-6.4,5.1-11.5,11.5-11.5s11.5,5.1,11.5,11.5s-5.1,11.5-11.5,11.5S864,136.9,864,130.5z"/>
	</g>
</g>
</svg>
