<svg xmlns="http://www.w3.org/2000/svg" width="93" height="101" viewBox="0 0 93 101">
    <path fill="#A0AFCC" fill-rule="evenodd" d="M56.164 33.61c0-.89.715-1.61 1.616-1.61h17.727a3.303 3.303 0 0 1 3.283 3.153l1.465 38.054c.038.884.458 2.188.959 2.94L92.069 92.37c.72 1.065 1.083 2.783.87 4.055l-.275 1.661C92.388 99.734 90.879 101 89.2 101H3.8C2.126 101 .61 99.728.335 98.085l-.276-1.66c-.213-1.273.157-2.99.87-4.056l10.856-16.222c.494-.74.92-2.056.958-2.94l1.466-38.054A3.303 3.303 0 0 1 17.492 32h17.727c.89 0 1.616.72 1.616 1.617s-.714 1.624-1.591 1.624l-16.223.031c-.877 0-1.616.74-1.647 1.605l-1.366 35.24a1.54 1.54 0 0 0 1.541 1.604h57.902c.883 0 1.572-.72 1.534-1.604L75.57 36.814a1.677 1.677 0 0 0-1.679-1.605l-16.11.02c-.89 0-1.616-.715-1.616-1.618zM75.56 77H16.44c-.901 0-1.99.593-2.482 1.331L3.39 94.334c-.261.391-.448 1.287-.373 1.754l.273 1.672c.02.095.187.24.287.24h84.846c.106 0 .268-.139.287-.24l.273-1.672c.075-.467-.112-1.363-.373-1.754L78.043 78.33C77.558 77.6 76.443 77 75.56 77zM48.103.465l19.393 19.177c1.526 1.501-.76 3.74-2.279 2.245L49.753 6.673c-.621-.62-1.143-.421-1.143.447v38.305c0 .856-.722 1.575-1.613 1.575-.892 0-1.614-.707-1.614-1.575V7.12c0-.85-.508-1.067-1.136-.447L28.783 21.887c-1.52 1.495-3.805-.744-2.28-2.245L45.842.465a1.605 1.605 0 0 1 2.26 0h.002z"/>
</svg>
