<svg xmlns="http://www.w3.org/2000/svg" width="116" height="116" viewBox="0 0 116 116">
    <g fill="none" fill-rule="evenodd" transform="translate(1 1)">
        <path fill="#A0AFCC" d="M89.28 27.926a1.436 1.436 0 0 0 .038-.285c.003-.041.003-.079.003-.12-.003-.06-.01-.116-.016-.175l-.015-.107a1.428 1.428 0 0 0-.057-.188c-.01-.028-.016-.057-.028-.085a1.308 1.308 0 0 0-.11-.207c-.01-.015-.016-.034-.025-.05v-.003a1.544 1.544 0 0 0-.179-.223c-.019-.022-.044-.038-.063-.056-.05-.047-.1-.091-.156-.132a1.31 1.31 0 0 0-.088-.053 1.838 1.838 0 0 0-.173-.095c-.015-.006-.028-.015-.044-.022-.019-.009-.037-.009-.056-.018-.06-.022-.12-.041-.179-.057-.038-.01-.072-.019-.11-.025a1.787 1.787 0 0 0-.182-.019 1.215 1.215 0 0 0-.106-.006c-.073 0-.142.01-.214.022-.022.003-.047.003-.072.01a1.503 1.503 0 0 0-.273.08L25.99 50.499a1.572 1.572 0 1 0-.141 2.855l18.484 9.54a1.57 1.57 0 0 0 1.44-2.789l-15.425-7.959L81.255 31.85l-.367.367L49.99 63.12c-.11.11-.192.232-.26.36l-.045.082c-.06.129-.106.264-.131.402-.003.019-.003.04-.007.06-.015.128-.018.26-.003.388.003.025.003.047.007.073.022.14.069.279.128.41.006.013.006.026.013.038l11.51 22.973c.267.534.81.866 1.402.866h.05a1.57 1.57 0 0 0 1.397-.96l25.145-59.628c.01-.022.012-.044.019-.066a.864.864 0 0 0 .065-.191zM62.39 84.121l-9.492-19.108L83.04 34.607l.081-.083L62.39 84.121z"/>
        <circle cx="57" cy="57" r="57" stroke="#A6B4CF"/>
    </g>
</svg>
