<svg xmlns="http://www.w3.org/2000/svg" width="43" height="38" viewBox="0 0 43 38">
    <g fill="#8C9BB6" fill-rule="evenodd">
        <path d="M21.5 29.697c-4.289 0-7.769-3.529-7.769-7.883 0-4.351 3.48-7.88 7.769-7.88 4.29 0 7.769 3.528 7.769 7.88 0 4.354-3.48 7.883-7.769 7.883m0-17.734c-5.354 0-9.71 4.42-9.71 9.852s4.356 9.852 9.71 9.852c5.354 0 9.71-4.42 9.71-9.852 0-5.433-4.356-9.852-9.71-9.852"/>
        <path d="M41.045 36.001H1.955v-28h7.818c.519 0 1.016-.21 1.382-.586l4.146-4.242A3.839 3.839 0 0 1 18.065 2h6.783c1.028 0 2 .405 2.734 1.14L31.86 7.43c.366.366.856.572 1.369.572h7.817v28zm0-30h-7.818l-4.276-4.286A5.801 5.801 0 0 0 24.848 0h-6.783a5.798 5.798 0 0 0-4.147 1.758L9.772 6H7.82V4.001h-3.91v2H1.955C.875 6 0 6.895 0 8v28C0 37.105.875 38 1.955 38h39.09c1.08 0 1.955-.895 1.955-1.999v-28c0-1.105-.875-2-1.955-2z"/>
    </g>
</svg>
