<svg xmlns="http://www.w3.org/2000/svg" width="72" height="58" viewBox="0 0 72 58">
    <g fill="#8A99B4" fill-rule="evenodd">
        <path d="M59.122 39.617l-6.316-6.36 4.688-2.29a.877.877 0 0 0 .49-.85.878.878 0 0 0-.587-.783l-7.647-2.65V11.2h1.903a.878.878 0 0 0 .878-.884.88.88 0 0 0-.878-.884H49.75V1.063a.88.88 0 0 0-.878-.884H12.106a.878.878 0 0 0-.878.884v8.368H9.193a.882.882 0 0 0-.878.884c0 .49.394.884.878.884h2.035v20.857c0 .487.39.884.878.884h29.616l3.097 9.062c.119.337.425.57.778.592a.87.87 0 0 0 .844-.494l2.278-4.72 6.312 6.36a.894.894 0 0 0 .763.242c.025-.007.053-.01.078-.02a.429.429 0 0 0 .09-.024.918.918 0 0 0 .31-.198l2.85-2.87a.893.893 0 0 0 .26-.623.913.913 0 0 0-.26-.63zM12.984 1.947h35.01v17.966l-9.035-9.094a.904.904 0 0 0-1.244 0L25.494 23.122l-4.088-4.113a.904.904 0 0 0-1.243 0l-7.179 7.222V1.948zm0 29.224v-2.436l7.8-7.85L24.872 25c.328.33.909.33 1.237 0l12.228-12.306 9.656 9.72v3.662l-7.997-2.772a.857.857 0 0 0-.931.249l-.01.003a.89.89 0 0 0-.224.925l2.284 6.69H12.984zm42.669 10.69l-6.566-6.611a.884.884 0 0 0-.769-.25.889.889 0 0 0-.646.489l-1.885 3.914-2.6-7.605a.681.681 0 0 0-.031-.085l-2.103-6.165 13.759 4.768-3.881 1.897a.868.868 0 0 0-.485.651.903.903 0 0 0 .241.775l6.572 6.61-1.606 1.612z"/>
        <path d="M56.272 43.74a.79.79 0 0 1-.284.188c.106-.044.2-.11.284-.189zM62.875 11.199h-5.61a.882.882 0 0 1-.877-.884c0-.488.393-.885.878-.885h5.61c.484 0 .877.397.877.885a.882.882 0 0 1-.878.884zM71.122 13.855a.882.882 0 0 1-.879-.885v-1.768h-1.756a.882.882 0 0 1-.878-.884c0-.488.394-.884.878-.884h2.635c.484 0 .878.396.878.884v2.652a.882.882 0 0 1-.878.885zM71.122 49.265a.882.882 0 0 1-.879-.885v-5.9c0-.487.394-.884.879-.884.484 0 .878.396.878.884v5.9a.88.88 0 0 1-.878.885zm0-11.803a.882.882 0 0 1-.879-.885v-5.903c0-.488.394-.884.879-.884.484 0 .878.396.878.884v5.903a.882.882 0 0 1-.878.885zm0-11.803a.882.882 0 0 1-.879-.885v-5.903c0-.488.394-.884.879-.884.484 0 .878.396.878.884v5.903a.882.882 0 0 1-.878.885zM71.122 57.82h-2.635a.882.882 0 0 1-.878-.884c0-.488.394-.884.878-.884h1.756v-1.769c0-.487.394-.884.879-.884.484 0 .878.397.878.884v2.653a.882.882 0 0 1-.878.884zM63.487 57.82H58.49a.882.882 0 0 1-.878-.884c0-.488.394-.884.878-.884h4.997c.485 0 .878.396.878.884a.878.878 0 0 1-.878.884zm-9.993 0h-4.997a.882.882 0 0 1-.878-.884c0-.488.393-.884.878-.884h4.997c.484 0 .878.396.878.884a.882.882 0 0 1-.878.884zm-9.997 0H38.5a.882.882 0 0 1-.878-.884c0-.488.394-.884.878-.884h4.997c.484 0 .878.396.878.884a.882.882 0 0 1-.878.884zm-9.997 0h-4.997a.882.882 0 0 1-.878-.884c0-.488.394-.884.878-.884H33.5c.484 0 .878.396.878.884a.88.88 0 0 1-.878.884zm-9.994 0H18.51a.882.882 0 0 1-.879-.884c0-.488.394-.884.879-.884h4.996c.485 0 .879.396.879.884a.882.882 0 0 1-.879.884zm-9.996 0H8.513a.882.882 0 0 1-.878-.884c0-.488.393-.884.878-.884h4.997c.484 0 .878.396.878.884a.882.882 0 0 1-.878.884zM3.512 57.82H.878A.882.882 0 0 1 0 56.936v-2.653c0-.487.394-.884.878-.884s.878.397.878.884v1.769h1.756c.485 0 .879.396.879.884a.882.882 0 0 1-.879.884zM.878 49.265A.88.88 0 0 1 0 48.38v-5.903c0-.488.394-.884.878-.884.485 0 .878.396.878.884v5.903a.88.88 0 0 1-.878.885zm0-11.803A.882.882 0 0 1 0 36.577v-5.903c0-.488.394-.884.878-.884.485 0 .878.396.878.884v5.903a.882.882 0 0 1-.878.885zm0-11.803A.882.882 0 0 1 0 24.774v-5.9c0-.487.394-.884.878-.884.485 0 .878.396.878.884v5.9a.882.882 0 0 1-.878.885zM.878 13.855A.882.882 0 0 1 0 12.97v-2.652c0-.488.394-.884.878-.884h2.635c.484 0 .878.396.878.884a.882.882 0 0 1-.878.884L1.756 11.2v1.771a.882.882 0 0 1-.878.885zM22.882 15.221c-2.4 0-4.35-1.967-4.35-4.38 0-2.417 1.953-4.38 4.35-4.38 2.396 0 4.35 1.966 4.35 4.38 0 2.413-1.95 4.38-4.35 4.38zm0-6.992a2.604 2.604 0 0 0-2.594 2.612 2.604 2.604 0 0 0 2.594 2.612 2.604 2.604 0 0 0 2.593-2.612 2.604 2.604 0 0 0-2.593-2.612z"/>
    </g>
</svg>
