<svg id="Layer_1" data-name="Layer 1" xmlns="http://www.w3.org/2000/svg" viewBox="0 0 43 38"><defs><style>.cls-1{fill:#d0021b;}</style></defs><title>Artboard 1</title><path class="cls-1" d="M21.5,29.7a7.88,7.88,0,1,1,7.77-7.88A7.83,7.83,0,0,1,21.5,29.7M21.5,12a9.85,9.85,0,1,0,9.71,9.85A9.79,9.79,0,0,0,21.5,12"/><path class="cls-1" d="M41,36H2V8H9.77a1.93,1.93,0,0,0,1.38-.59L15.3,3.17A3.84,3.84,0,0,1,18.07,2h6.78a3.84,3.84,0,0,1,2.73,1.14l4.28,4.29A1.93,1.93,0,0,0,33.23,8H41V36ZM41,6H33.23L29,1.71A5.8,5.8,0,0,0,24.85,0H18.06a5.8,5.8,0,0,0-4.15,1.76L9.77,6h-2V4H3.91V6H2A2,2,0,0,0,0,8V36a2,2,0,0,0,2,2H41a2,2,0,0,0,2-2V8A2,2,0,0,0,41,6Z"/></svg>